<svg width="125" height="29" viewBox="0 0 125 29" fill="none" xmlns="http://www.w3.org/2000/svg">
<path d="M11.1844 3.60718H8.99591V10.3745H11.1844V3.60718Z" fill="#22C55E"/>
<path d="M14.988 3.60718H12.7994V10.3745H14.988V3.60718Z" fill="#22C55E"/>
<path d="M18.7916 3.60718H16.6031V10.3745H18.7916V3.60718Z" fill="#22C55E"/>
<path d="M24.2423 8.04071V5.94104C24.2423 4.64899 23.2006 3.60718 21.9166 3.60718H20.4064V10.3745H21.9166C23.2006 10.3745 24.2423 9.32471 24.2423 8.04071Z" fill="#22C55E"/>
<path d="M7.38068 10.3745V3.60718H5.87048C4.58655 3.60718 3.5448 4.64899 3.5448 5.94104V8.04071C3.5448 9.32471 4.58655 10.3745 5.87048 10.3745H7.38068Z" fill="#22C55E"/>
<path d="M7.63922 11.9856H5.45074V18.7529H7.63922V11.9856Z" fill="#22C55E"/>
<path d="M11.4428 11.9856H9.25433V18.7529H11.4428V11.9856Z" fill="#22C55E"/>
<path d="M15.2464 11.9856H13.0579V18.7529H15.2464V11.9856Z" fill="#22C55E"/>
<path d="M20.6975 14.3195C20.6975 13.0274 19.6558 11.9856 18.3718 11.9856H16.8616V18.7529H18.3718C19.6558 18.7529 20.6975 17.7031 20.6975 16.4191V14.3195Z" fill="#22C55E"/>
<path d="M2.32568 18.7529H3.83588V11.9856H2.32568C1.04169 11.9856 0 13.0274 0 14.3195V16.4191C0 17.7031 1.04169 18.7529 2.32568 18.7529Z" fill="#22C55E"/>
<path d="M7.63922 20.3639H5.45074V27.1312H7.63922V20.3639Z" fill="#22C55E"/>
<path d="M11.4428 20.3639H9.25433V27.1312H11.4428V20.3639Z" fill="#22C55E"/>
<path d="M15.2464 20.3639H13.0579V27.1312H15.2464V20.3639Z" fill="#22C55E"/>
<path d="M20.6975 24.7975V22.6979C20.6975 21.4058 19.6558 20.364 18.3718 20.364H16.8616V27.1313H18.3718C19.6558 27.1313 20.6975 26.0815 20.6975 24.7975Z" fill="#22C55E"/>
<path d="M2.32568 27.1313H3.83588V20.364H2.32568C1.04169 20.364 0 21.4058 0 22.6979V24.7975C0 26.0815 1.04169 27.1313 2.32568 27.1313Z" fill="#22C55E"/>
<path d="M31.41 16.3063C31.41 15.7911 30.9908 15.3721 30.4749 15.3721H30.2649V17.2415H30.4749C30.9908 17.2415 31.41 16.8216 31.41 16.3063Z" fill="#22C55E"/>
<path d="M27.504 12.8218C27.504 13.337 27.9239 13.757 28.4391 13.757H28.6498V11.8867H28.4391C27.9239 11.8867 27.504 12.3067 27.504 12.8218Z" fill="#22C55E"/>
<path d="M22.1827 25.7744C23.9198 26.6627 25.8499 27.131 27.8437 27.131C34.7491 27.131 40.3777 21.4943 40.3777 14.5655C40.3777 7.63672 34.7491 2 27.8437 2C26.5273 2 25.2361 2.20184 24.0078 2.5976C25.1141 3.29211 25.8571 4.52765 25.8571 5.94086V8.04053C25.8571 10.2209 24.0894 11.9894 21.9163 11.9894H21.5375C22.0212 12.6436 22.3127 13.4431 22.3127 14.3152V16.4149C22.3127 17.7069 21.6901 18.8375 20.7372 19.5562C21.6901 20.283 22.3127 21.4136 22.3127 22.6976V24.7972C22.3127 25.1364 22.2724 25.4594 22.1827 25.7744ZM28.4413 15.373C27.0361 15.373 25.8894 14.2263 25.8894 12.8212C25.8894 11.4161 27.0361 10.2693 28.4413 10.2693H28.6512V10.1159C28.6512 9.67175 29.0074 9.30835 29.4588 9.30835C29.9037 9.30835 30.2664 9.67175 30.2664 10.1159V10.2693H32.2206C32.6656 10.2693 33.0282 10.6327 33.0282 11.0769C33.0282 11.5291 32.6656 11.8845 32.2206 11.8845H30.2664V13.7579H30.4772C31.8815 13.7579 33.0282 14.9047 33.0282 16.3098C33.0282 17.715 31.8815 18.8536 30.4772 18.8536H30.2664V19.0151C30.2664 19.4593 29.9037 19.8227 29.4588 19.8227C29.0074 19.8227 28.6512 19.4593 28.6512 19.0151V18.8536H26.697C26.2536 18.8536 25.8894 18.4984 25.8894 18.0461C25.8894 17.6019 26.2536 17.2385 26.697 17.2385H28.6512V15.373H28.4413Z" fill="#22C55E"/>
<path d="M48.0337 6.864H60.8497V10.032H51.8017V13.704H60.1057V16.632H51.8017V20.832H61.0417V24H48.0337V6.864ZM65.8762 19.968C65.8762 20.336 65.9482 20.656 66.0922 20.928C66.2522 21.184 66.4522 21.4 66.6922 21.576C66.9322 21.736 67.2042 21.856 67.5082 21.936C67.8282 22.016 68.1562 22.056 68.4922 22.056C68.7322 22.056 68.9802 22.032 69.2362 21.984C69.5082 21.92 69.7482 21.832 69.9562 21.72C70.1802 21.592 70.3642 21.432 70.5082 21.24C70.6522 21.032 70.7242 20.776 70.7242 20.472C70.7242 19.96 70.3802 19.576 69.6922 19.32C69.0202 19.064 68.0762 18.808 66.8602 18.552C66.3642 18.44 65.8762 18.312 65.3962 18.168C64.9322 18.008 64.5162 17.808 64.1482 17.568C63.7802 17.312 63.4842 17 63.2602 16.632C63.0362 16.248 62.9242 15.784 62.9242 15.24C62.9242 14.44 63.0762 13.784 63.3802 13.272C63.7002 12.76 64.1162 12.36 64.6282 12.072C65.1402 11.768 65.7162 11.56 66.3562 11.448C66.9962 11.32 67.6522 11.256 68.3242 11.256C68.9962 11.256 69.6442 11.32 70.2682 11.448C70.9082 11.576 71.4762 11.792 71.9722 12.096C72.4682 12.4 72.8762 12.808 73.1962 13.32C73.5322 13.816 73.7322 14.448 73.7962 15.216H70.5562C70.5082 14.56 70.2602 14.12 69.8122 13.896C69.3642 13.656 68.8362 13.536 68.2282 13.536C68.0362 13.536 67.8282 13.552 67.6042 13.584C67.3802 13.6 67.1722 13.648 66.9802 13.728C66.8042 13.808 66.6522 13.928 66.5242 14.088C66.3962 14.232 66.3322 14.432 66.3322 14.688C66.3322 14.992 66.4442 15.24 66.6682 15.432C66.8922 15.624 67.1802 15.784 67.5322 15.912C67.9002 16.024 68.3162 16.128 68.7802 16.224C69.2442 16.32 69.7162 16.424 70.1962 16.536C70.6922 16.648 71.1722 16.784 71.6362 16.944C72.1162 17.104 72.5402 17.32 72.9082 17.592C73.2762 17.848 73.5722 18.176 73.7962 18.576C74.0202 18.96 74.1322 19.44 74.1322 20.016C74.1322 20.832 73.9642 21.52 73.6282 22.08C73.3082 22.624 72.8842 23.064 72.3562 23.4C71.8282 23.736 71.2202 23.968 70.5322 24.096C69.8602 24.24 69.1722 24.312 68.4682 24.312C67.7482 24.312 67.0442 24.24 66.3562 24.096C65.6682 23.952 65.0522 23.712 64.5082 23.376C63.9802 23.04 63.5402 22.6 63.1882 22.056C62.8522 21.496 62.6682 20.8 62.6362 19.968H65.8762ZM84.5748 15.96C84.3508 14.536 83.5108 13.824 82.0548 13.824C81.5108 13.824 81.0548 13.952 80.6868 14.208C80.3188 14.448 80.0148 14.768 79.7748 15.168C79.5508 15.552 79.3908 15.984 79.2948 16.464C79.1988 16.928 79.1508 17.392 79.1508 17.856C79.1508 18.304 79.1988 18.76 79.2948 19.224C79.3908 19.688 79.5428 20.112 79.7508 20.496C79.9748 20.864 80.2708 21.168 80.6388 21.408C81.0068 21.648 81.4548 21.768 81.9828 21.768C82.7988 21.768 83.4228 21.544 83.8548 21.096C84.3028 20.632 84.5828 20.016 84.6948 19.248H87.9828C87.7588 20.896 87.1188 22.152 86.0628 23.016C85.0068 23.88 83.6548 24.312 82.0068 24.312C81.0788 24.312 80.2228 24.16 79.4388 23.856C78.6708 23.536 78.0148 23.096 77.4708 22.536C76.9268 21.976 76.5028 21.312 76.1988 20.544C75.8948 19.76 75.7428 18.904 75.7428 17.976C75.7428 17.016 75.8788 16.128 76.1508 15.312C76.4388 14.48 76.8548 13.768 77.3988 13.176C77.9428 12.568 78.6068 12.096 79.3908 11.76C80.1748 11.424 81.0708 11.256 82.0788 11.256C82.8148 11.256 83.5188 11.352 84.1908 11.544C84.8788 11.736 85.4868 12.032 86.0148 12.432C86.5588 12.816 86.9988 13.304 87.3348 13.896C87.6708 14.472 87.8628 15.16 87.9108 15.96H84.5748ZM92.9321 17.808C92.9321 18.304 92.9801 18.792 93.0761 19.272C93.1721 19.736 93.3321 20.16 93.5561 20.544C93.7961 20.912 94.1081 21.208 94.4921 21.432C94.8761 21.656 95.3561 21.768 95.9321 21.768C96.5081 21.768 96.9881 21.656 97.3721 21.432C97.7721 21.208 98.0841 20.912 98.3081 20.544C98.5481 20.16 98.7161 19.736 98.8121 19.272C98.9081 18.792 98.9561 18.304 98.9561 17.808C98.9561 17.312 98.9081 16.824 98.8121 16.344C98.7161 15.864 98.5481 15.44 98.3081 15.072C98.0841 14.704 97.7721 14.408 97.3721 14.184C96.9881 13.944 96.5081 13.824 95.9321 13.824C95.3561 13.824 94.8761 13.944 94.4921 14.184C94.1081 14.408 93.7961 14.704 93.5561 15.072C93.3321 15.44 93.1721 15.864 93.0761 16.344C92.9801 16.824 92.9321 17.312 92.9321 17.808ZM89.5241 17.808C89.5241 16.816 89.6761 15.92 89.9801 15.12C90.2841 14.304 90.7161 13.616 91.2761 13.056C91.8361 12.48 92.5081 12.04 93.2921 11.736C94.0761 11.416 94.9561 11.256 95.9321 11.256C96.9081 11.256 97.7881 11.416 98.5721 11.736C99.3721 12.04 100.052 12.48 100.612 13.056C101.172 13.616 101.604 14.304 101.908 15.12C102.212 15.92 102.364 16.816 102.364 17.808C102.364 18.8 102.212 19.696 101.908 20.496C101.604 21.296 101.172 21.984 100.612 22.56C100.052 23.12 99.3721 23.552 98.5721 23.856C97.7881 24.16 96.9081 24.312 95.9321 24.312C94.9561 24.312 94.0761 24.16 93.2921 23.856C92.5081 23.552 91.8361 23.12 91.2761 22.56C90.7161 21.984 90.2841 21.296 89.9801 20.496C89.6761 19.696 89.5241 18.8 89.5241 17.808ZM108.084 9.672H104.676V6.864H108.084V9.672ZM104.676 11.592H108.084V24H104.676V11.592ZM110.767 11.592H114.007V13.32H114.079C114.511 12.6 115.071 12.08 115.759 11.76C116.447 11.424 117.151 11.256 117.871 11.256C118.783 11.256 119.527 11.384 120.103 11.64C120.695 11.88 121.159 12.224 121.495 12.672C121.831 13.104 122.063 13.64 122.191 14.28C122.335 14.904 122.407 15.6 122.407 16.368V24H118.999V16.992C118.999 15.968 118.839 15.208 118.519 14.712C118.199 14.2 117.631 13.944 116.815 13.944C115.887 13.944 115.215 14.224 114.799 14.784C114.383 15.328 114.175 16.232 114.175 17.496V24H110.767V11.592Z" fill="black"/>
</svg>
